<svg xmlns="http://www.w3.org/2000/svg" width="1200" height="1500" viewBox="0 0 1200 1500" role="img" aria-label="FF Phone Lab — Product cards">
  <rect width="1200" height="1500" fill="#16181b" />
  <g fill="none" stroke="#fafaf7" stroke-opacity="0.3" stroke-width="2">
    <rect x="160" y="220" width="380" height="500" rx="18" />
    <rect x="660" y="220" width="380" height="500" rx="18" />
    <rect x="160" y="780" width="380" height="500" rx="18" />
    <rect x="660" y="780" width="380" height="500" rx="18" />
  </g>
  <g fill="none" stroke="#7cff6b" stroke-opacity="0.8" stroke-width="3" stroke-linecap="round">
    <rect x="230" y="300" width="160" height="280" rx="22" />
    <rect x="730" y="300" width="160" height="280" rx="22" />
    <rect x="230" y="860" width="160" height="280" rx="22" />
    <rect x="730" y="860" width="160" height="280" rx="22" />
  </g>
  <g stroke="#fafaf7" stroke-opacity="0.35" stroke-width="3" stroke-linecap="round">
    <line x1="210" y1="640" x2="360" y2="640" />
    <line x1="710" y1="640" x2="860" y2="640" />
    <line x1="210" y1="1200" x2="360" y2="1200" />
    <line x1="710" y1="1200" x2="860" y2="1200" />
  </g>
</svg>
