<svg xmlns="http://www.w3.org/2000/svg" width="1600" height="1000" viewBox="0 0 1600 1000" role="img" aria-label="HVCC — Active in 36 countries">
  <rect width="1600" height="1000" fill="#1e3a5f" />
  <g stroke="#fafaf7" stroke-opacity="0.35" stroke-width="2" fill="none">
    <line x1="800" y1="500" x2="300" y2="260" />
    <line x1="800" y1="500" x2="560" y2="200" />
    <line x1="800" y1="500" x2="1080" y2="220" />
    <line x1="800" y1="500" x2="1320" y2="360" />
    <line x1="800" y1="500" x2="1280" y2="720" />
    <line x1="800" y1="500" x2="940" y2="820" />
    <line x1="800" y1="500" x2="520" y2="780" />
    <line x1="800" y1="500" x2="260" y2="560" />
  </g>
  <g fill="#fafaf7" fill-opacity="0.7">
    <circle cx="300" cy="260" r="8" />
    <circle cx="560" cy="200" r="8" />
    <circle cx="1080" cy="220" r="8" />
    <circle cx="1320" cy="360" r="8" />
    <circle cx="1280" cy="720" r="8" />
    <circle cx="940" cy="820" r="8" />
    <circle cx="520" cy="780" r="8" />
    <circle cx="260" cy="560" r="8" />
  </g>
  <circle cx="800" cy="500" r="13" fill="#fafaf7" />
  <circle cx="800" cy="500" r="60" fill="none" stroke="#fafaf7" stroke-opacity="0.4" stroke-width="2" />
</svg>
